<svg width="1024" height="1024" viewBox="0 0 1024 1024" fill="none" xmlns="http://www.w3.org/2000/svg">
  <defs>
    <linearGradient id="bg" x1="164" y1="112" x2="876" y2="912" gradientUnits="userSpaceOnUse">
      <stop offset="0" stop-color="#121826"/>
      <stop offset="0.55" stop-color="#1F3A4A"/>
      <stop offset="1" stop-color="#F2A541"/>
    </linearGradient>
    <linearGradient id="moon" x1="211" y1="226" x2="531" y2="646" gradientUnits="userSpaceOnUse">
      <stop offset="0" stop-color="#FFF7E6"/>
      <stop offset="1" stop-color="#F7D38B"/>
    </linearGradient>
    <filter id="shadow" x="44" y="56" width="936" height="936" filterUnits="userSpaceOnUse" color-interpolation-filters="sRGB">
      <feDropShadow dx="0" dy="32" stdDeviation="36" flood-color="#061018" flood-opacity="0.34"/>
    </filter>
  </defs>
  <g filter="url(#shadow)">
    <rect x="96" y="96" width="832" height="832" rx="232" fill="url(#bg)"/>
    <path d="M184 690C332 538 518 384 838 258" stroke="#FFFFFF" stroke-opacity="0.17" stroke-width="28" stroke-linecap="round"/>
    <path fill-rule="evenodd" clip-rule="evenodd" d="M390 230C272 260 184 368 184 496C184 648 307 771 459 771C547 771 626 730 676 666C642 682 604 691 564 691C420 691 304 575 304 431C304 351 340 280 390 230Z" fill="url(#moon)"/>
    <circle cx="729" cy="292" r="54" fill="#FF7A45"/>
    <rect x="588" y="312" width="72" height="408" rx="36" fill="#FFF7E6"/>
    <rect x="486" y="392" width="276" height="72" rx="36" fill="#FFF7E6"/>
    <rect x="486" y="564" width="276" height="72" rx="36" fill="#FFF7E6"/>
    <rect x="486" y="392" width="72" height="244" rx="36" fill="#FFF7E6"/>
    <rect x="690" y="392" width="72" height="244" rx="36" fill="#FFF7E6"/>
    <rect x="590" y="314" width="68" height="404" rx="34" fill="#FFB000" fill-opacity="0.82"/>
  </g>
</svg>
